<svg width="19" height="17" viewBox="0 0 19 17" fill="none" xmlns="http://www.w3.org/2000/svg">
<path d="M2.46647 4.9639C2.3298 4.96037 2.23055 4.95246 2.14132 4.93471C1.48017 4.8032 0.96334 4.28637 0.831829 3.62522C0.799805 3.46422 0.799805 3.27061 0.799805 2.8834C0.799805 2.49619 0.799805 2.30258 0.831829 2.14158C0.96334 1.48043 1.48017 0.963602 2.14132 0.832091C2.30232 0.800066 2.49593 0.800066 2.88314 0.800066H15.3831C15.7704 0.800066 15.964 0.800066 16.125 0.832091C16.7861 0.963602 17.3029 1.48043 17.4344 2.14158C17.4665 2.30258 17.4665 2.49619 17.4665 2.8834C17.4665 3.27061 17.4665 3.46422 17.4344 3.62522C17.3029 4.28637 16.7861 4.8032 16.125 4.93471C16.0357 4.95246 15.9365 4.96037 15.7998 4.9639M7.46647 9.1334H10.7998M2.46647 4.96673H15.7998V11.8001C15.7998 13.2002 15.7998 13.9003 15.5273 14.435C15.2876 14.9054 14.9052 15.2879 14.4348 15.5276C13.9 15.8001 13.1999 15.8001 11.7998 15.8001H6.46647C5.06634 15.8001 4.36627 15.8001 3.83149 15.5276C3.36109 15.2879 2.97864 14.9054 2.73895 14.435C2.46647 13.9003 2.46647 13.2002 2.46647 11.8001V4.96673Z" stroke="#051513" stroke-width="1.6" stroke-linecap="round" stroke-linejoin="round"/>
</svg>
