<svg width="20" height="20" viewBox="0 0 20 20" fill="none" xmlns="http://www.w3.org/2000/svg">
<path d="M10.0005 12.5L10.0005 18.3333M6.66719 6.09011V7.86562C6.66719 8.03897 6.66719 8.12565 6.65017 8.20855C6.63508 8.2821 6.61011 8.35328 6.57595 8.42014C6.53745 8.49551 6.4833 8.56319 6.37501 8.69855L5.06686 10.3337C4.51208 11.0272 4.23469 11.374 4.23438 11.6658C4.2341 11.9196 4.34949 12.1596 4.54783 12.318C4.7759 12.5 5.21994 12.5 6.10802 12.5H13.893C14.7811 12.5 15.2251 12.5 15.4532 12.318C15.6516 12.1596 15.7669 11.9196 15.7667 11.6658C15.7664 11.374 15.489 11.0272 14.9342 10.3337L13.626 8.69855C13.5177 8.56319 13.4636 8.49551 13.4251 8.42014C13.3909 8.35328 13.366 8.2821 13.3509 8.20855C13.3339 8.12565 13.3339 8.03897 13.3339 7.86562V6.09011C13.3339 5.99417 13.3339 5.9462 13.3393 5.8989C13.3441 5.85687 13.3521 5.81528 13.3632 5.77447C13.3758 5.72854 13.3936 5.684 13.4292 5.59492L14.2691 3.49519C14.5141 2.88261 14.6367 2.57633 14.5856 2.33045C14.5409 2.11544 14.4131 1.92676 14.2301 1.80542C14.0208 1.66667 13.6909 1.66667 13.0311 1.66667H6.9699C6.31014 1.66667 5.98026 1.66667 5.77094 1.80542C5.5879 1.92676 5.46016 2.11544 5.41548 2.33045C5.36439 2.57633 5.4869 2.88261 5.73193 3.49519L6.57182 5.59492C6.60745 5.684 6.62527 5.72854 6.6378 5.77447C6.64894 5.81528 6.65695 5.85687 6.66176 5.8989C6.66719 5.9462 6.66719 5.99417 6.66719 6.09011Z" stroke="#051513" stroke-width="1.6" stroke-linecap="round" stroke-linejoin="round"/>
</svg>
